<svg id="Logo_TSG_1899" data-name="Logo TSG 1899" xmlns="http://www.w3.org/2000/svg" viewBox="0 0 795.49 950.17"><defs><style>.cls-1{fill:#fff;stroke:#005ca9;stroke-miterlimit:10;stroke-width:12.32px;}.cls-2{fill:#005ca9;}</style></defs><title>TSG_Standard_Logo</title><path class="cls-1" d="M888,601.25l-.17-1.35-7.72-8.19C811.33,517,778.91,443.41,783.81,372.92,790,283.1,856.64,228,857.29,227.5l9.08-7.27L816.09,95.72l-15.66,9.63c-.45.27-45.52,27.22-108.53,27.22-66.25,0-128.26-28.48-184.32-84.64l-11-11-11,11c-56.06,56.16-118.08,84.64-184.33,84.64-63.26,0-108-26.93-108.48-27.2L177,95.66,131.12,209.42l-4.32,10.78,9,7.28c.67.54,67.27,55.51,73.5,145.43,5,71.64-28.56,146.46-99.68,222.4l-4.47,4.86.38,3.85c-.23,1.74,24.1,186.32,192.07,230.49,145.44,38.25,184.92,105.4,185.27,106l13.51,25,13.81-24.89c.38-.67,40-67.57,185.35-106.12C781,811.85,828.71,752.11,853.67,706,879.9,657.52,888.89,607.84,888,601.25Z" transform="translate(-98.76 -28.17)"/><path class="cls-2" d="M687.11,437l-26-21.77c-1.45-1.22-5-4.72-5-7.84,0-2.83.54-3.58,2.53-5.95,4.24-5,8.73-3.1,12.63.17L698,424.06l5.27-6.26-29.38-24.59c-9.11-7.62-15.48-1.91-18.88,2.14-3,3.51-5.07,7.72-2.73,13.32-4.74-1.5-9.6,1.33-12.55,4.84-3.79,4.5-5.09,9-2.5,14.29l-.13.15-4.82-4-5.59,6.64c2.87,2,5.68,4.1,8.36,6.34l30.6,25.62,5.26-6.26-26-21.77a15,15,0,0,1-4.44-6.19c-.68-2.13.35-5.69,2-7.59,4.24-5,8.73-3.1,12.63.17l26.78,22.42Zm-84.39,2.06,5.91-7-6.73-5.63-5.91,7Zm15.45,1.62L612.91,447l38.64,32.34,5.26-6.26Zm8.76,32.83-3.29-2.75c-12.78-10.7-21.13-13-30.37-2-11.23,13.36-3,22.47,8.33,31.95,17.06,14.28,25,9.84,31.83,1.67s7.33-16.62-1.17-23.87l-5.78,6.87c3.71,3.49,5.29,8.59,1.7,12.86-4.11,4.89-8.69,6-19.48-3Zm-23,17.7c-10.65-9-9.8-13.92-6.46-17.89,3.85-4.58,7.86-6.56,19.11,2.86Zm10.22,32.49-27.39-22.93c-8.72-7.3-15.09-6.39-20.61.17-4.24,5-5.45,9-3.06,15.26l-.25.3-21.57-18.06L536,504.75,591.26,551l5.27-6.26-22.72-19c-6.5-5.44-10.21-11.27-4.94-17.53,4.49-5.34,9.14-4.05,13.88-.08L608.92,530Zm-30.81,36.63L556.59,538c-7.65-6.4-14.36-8.51-21.29-.26-4.17,5-5.23,9-2.93,15.11l-.26.31-5-4.16-5.59,6.64c2.87,2,5.68,4.1,8.35,6.34l30.6,25.62,5.27-6.26L542.9,562.14c-5.28-4.42-10.56-10.53-4.78-17.41,4.49-5.34,9.08-4,13.21-.52l26.78,22.42Zm-47.59,21.55-3.29-2.75c-12.78-10.7-21.13-13-30.38-2-11.23,13.36-3,22.47,8.33,31.95,17.06,14.28,25,9.85,31.83,1.68s7.34-16.62-1.17-23.87l-5.78,6.87c3.71,3.5,5.29,8.59,1.69,12.87-4.1,4.88-8.69,6-19.48-3Zm-23,17.71c-10.65-9-9.8-13.92-6.46-17.9,3.85-4.58,7.86-6.55,19.11,2.86Zm-42.35,16.71,4.75,4,5-6,33.89,28.37,5.27-6.26L485.47,608.1l6.55-7.78-4.74-4-6.55,7.78-6.58-5.5c-3.14-2.63-5-6.14,1-12.4l-4.51-3.78a21.07,21.07,0,0,0-2.74,2.78c-4.69,5.57-7.78,12.35,0,18.88l7.5,6.27Zm-17.85,21.22,4.74,4,5-6L496.25,664l5.26-6.26-33.89-28.37,6.55-7.79-4.74-4-6.55,7.78-6.58-5.51c-3.14-2.62-5-6.14,1-12.4l-4.51-3.78a21.33,21.33,0,0,0-2.73,2.79c-4.69,5.57-7.78,12.35,0,18.88l7.5,6.27Zm22.77,52.75c6.87-8.17,9.88-16.7-7.18-31-11.32-9.48-21.75-16-33-2.64s-3,22.47,8.33,32c17.06,14.28,25,9.84,31.83,1.67M470.26,686c-5.46,6.49-11.32,4.32-23.87-6.19-10.56-8.84-10.09-14-6.05-18.85s9.1-6.17,19.66,2.67c12.55,10.5,15.72,15.89,10.26,22.37M433.4,738.68l-25.25-21.14,16.24-19.31,25.25,21.14,5.91-7L400.31,666.1l-5.91,7,23.87,20L402,712.42l-23.87-20-5.9,7L427.5,745.7Z" transform="translate(-98.76 -28.17)"/><path class="cls-2" d="M570.73,313.86c-4.67-3.91-10.16-4.35-14.08.31-4.55,5.42-1.86,11.05,2.19,14.45,1.83,1.54,8.86,6.51,14.45-.13C578,322.84,574.48,317,570.73,313.86Z" transform="translate(-98.76 -28.17)"/><path class="cls-2" d="M519.67,418.75a9.74,9.74,0,0,0-14.15,1.16c-3.72,4.43-3.05,10.45,1.46,14.23,5.43,4.55,11.36,2.62,14.44-1C524.12,429.89,525.64,423.74,519.67,418.75Z" transform="translate(-98.76 -28.17)"/><path class="cls-2" d="M533.75,357.83c-4.67-3.91-10.16-4.35-14.08.31-4.56,5.42-1.87,11.06,2.19,14.45,1.84,1.54,8.87,6.51,14.45-.13C541.06,366.81,537.5,361,533.75,357.83Z" transform="translate(-98.76 -28.17)"/><path class="cls-2" d="M482.93,400.74c-3.21,3.81-3.24,9.12.81,12.52a8.72,8.72,0,0,0,12.66-1.11c3.27-3.89,3.43-9.35-.85-12.94S485.95,397.15,482.93,400.74Z" transform="translate(-98.76 -28.17)"/><path class="cls-2" d="M807.66,121.48,802,124.33C786.7,132.06,745.31,150,691.9,150,623,150,558.66,121.62,500.61,65.57l-4-3.9-4,3.9c-58,56-122.41,84.46-191.29,84.46-53.57,0-94.86-18-110.12-25.7l-5.65-2.86L147.82,214.7l3,2.73c16.35,15,70.14,70.5,75.95,154.28C232,447.32,197.9,525.48,125.39,604l-2,2.13.51,2.85c4.47,24.85,30,138,130.75,190.43L814.75,139ZM345,657.71l-46.14-38.62-13.8,16.41-9.18-7.69,37.62-44.72,9.18,7.69-13.8,16.41L355,645.8Zm46-52.11c-17.78,21.14-31.53,9.89-36.95,5.49L364.26,599c2.6,2.18,10.35,8.93,18.89-1.23,5.39-6.41,5.73-13,1.07-16.93-4.9-4.1-8.63-1.37-16.22,4.24-14.33,10.38-24.27,14.28-33.83,6.28-9.1-7.62-11.68-20.83,1.22-36.18,4.81-5.72,11.83-11.43,20.5-11.2,6.61.2,11,3.92,12.88,5.45l-9.56,11.37c-2-1.45-9.06-6.28-15.93,1.89-4.62,5.49-4.66,11.58-.14,15.36,5.13,4.29,9.45,1,18.11-5.26,10.32-7.62,20.82-14.83,31.61-5.8C402.81,575.36,403.91,590.33,391.07,605.6ZM441.9,545c-10.59,12.59-19.11,16.52-27.05,17.28-11.25,1.13-21-5.1-26.82-10-19.59-16.4-19.79-37.38-5.74-54.1,6-7.1,14.12-12.76,22.75-13,7.29-.14,11.84,3.28,14.89,5.7L409.6,503.27a13.65,13.65,0,0,0-6.87-3.15c-5.6-.79-9.87,3.05-12.05,5.65-11.3,13.44-1,26.61,7.49,33.72,3.75,3.14,10.93,8.24,18.7,7.85,5.37-.18,10.14-2.44,15.66-9,4.81-5.73,5.8-8.29,6.5-9.91l-11.63-9.73-9,10.68-9.18-7.69,18.94-22.51,27.62,23.12C454,526.69,451.21,533.94,441.9,545Zm54.82-67.66-41.54-34.78a76,76,0,0,1-3.66,18.14l-10.63-8.9A96.19,96.19,0,0,0,444.73,431l8.28-9.85,53.4,44.71ZM529,440.71C519.85,451.55,506.6,453.2,498,446a16.17,16.17,0,0,1-6.06-11.7A21.76,21.76,0,0,1,493.9,424c-3.09,2-11.61,7.45-19.87.53-6.5-5.45-10.36-17.91.55-30.89,9-10.68,21.34-13,29.68-6,6.42,5.38,6.62,14.13,2.91,20.26,2.41-1.63,6.34-4.45,12.7-3.94a17.6,17.6,0,0,1,10,4.22C539.67,416.37,537.77,430.25,529,440.71Zm35.72-42.16c-2.5,3-13.86,16.49-27.86,4.77l9.69-11.53c3.47,2.39,7.19,2,9.89-1.21,6.68-7.94-1.07-15.47-8.61-21.39a17.17,17.17,0,0,1-4.42,12.69c-11,13.05-24.21,7.7-30.56,2.39-9.94-8.33-11.55-21.77-1.66-33.52,15.41-18.32,33.24-4.17,41.8,3C575.53,372.64,575.54,385.65,564.69,398.55Zm37-44c-2.5,3-13.87,16.49-27.87,4.77l9.69-11.53c3.47,2.39,7.19,2,9.89-1.21,6.68-7.94-1.07-15.47-8.61-21.39a17.18,17.18,0,0,1-4.42,12.69c-11,13.05-24.21,7.7-30.55,2.39-9.95-8.33-11.55-21.76-1.66-33.52,15.4-18.32,33.24-4.18,41.8,3C612.51,328.68,612.52,341.69,601.66,354.59Z" transform="translate(-98.76 -28.17)"/></svg>