<svg id="Layer_2" data-name="Layer 2" xmlns="http://www.w3.org/2000/svg" viewBox="0 0 962.39 493.75"><defs><style>.cls-1{fill:#fff;}.cls-2,.cls-3{fill:#001f47;}.cls-3,.cls-5{fill-rule:evenodd;}.cls-4{fill:#dadada;}.cls-5{fill:#dd0741;}</style></defs><title>RBL_Standard_Logo</title><path class="cls-1" d="M730.54,250.09V396.85c6.16,2.61,14.65,6.82,20.66,9.73l-.33-2.06c-.14-22.85,6.69-19.76,22-26.35,3.82-1.65,5-8.79,11.21-9.34,7.34-.64,24,2.28,30.6,5.61,4.08,2.06,5.05,5.09,6.54,8.92,1.56,4.05,9.21,7.09,11,11.94,3.44,9.26-.31,22.35-10.07,26.14-3.43,1.34-19.3.46-19.3.46-.07,3.17.06,8-.16,11.15-.12,1.6,0,4.37,0,4.37s3.14,1,4.7,1.44c26.17,7,169,49.73,172.33,57.69a1.44,1.44,0,0,1-1,2.18c-3.51.35-93.39-20.33-110.41-23.46C849,471.73,833.85,468.6,809.57,465l.14,1.37c0,7.86-1.68,7.81-8.2,10.06l.21,1.46c8.19,1.65,34,5.55,39.63,9.34,6.2,4.14,20.74-1,30.92,12.86,2.67,3.64,2.73,18.71.1,22.31-4.28,5.87-8.74,3.32-14.62,4.14-3.57.51-5.34,4-8.3,5.6s-7,1-10.17,1c-7.68.17-10.15-6.75-15.56-10.48-2.61-1.8-5.73-.59-8.62-1.35-4.34-1.15-7.18-6.12-11-8.1-2.23-1.15-7.52-.78-9.65.52-13.68,8.42-49.35-.23-63.29-8.81l.46,88.89a66.39,66.39,0,0,1-9,30.26c-43.73,75.1-135.93,119.67-223.11,119.73h-1.49c-87.18-.05-179.36-43.28-223.1-118.38a69.81,69.81,0,0,1-9-31.61l.45-88.89c-13.94,8.58-49.6,17.23-63.28,8.81-2.12-1.3-7.41-1.68-9.65-.52-3.82,2-6.65,6.94-11,8.1-2.89.76-6-.45-8.61,1.35-5.42,3.73-7.89,10.65-15.57,10.48-3.21-.07-7.27.55-10.16-1s-4.73-5.1-8.3-5.6c-5.89-.83-10.34,1.73-14.63-4.14-2.62-3.6-2.57-18.67.11-22.31,10.17-13.84,24.71-8.72,30.92-12.86,5.66-3.79,31.45-7.69,39.63-9.34l.21-1.46c-6.53-2.25-8.24-2.2-8.2-10.06L188,465c-24.29,3.61-39.43,6.74-58.74,10.29-17,3.13-106.91,23.81-110.42,23.46,0,0-1.94-.45-1-2.18,3.38-8,146.15-50.71,172.34-57.69,1.55-.41,4.7-1.44,4.7-1.44s.15-2.77,0-4.37c-.23-3.17-.1-8-.17-11.15,0,0-15.86.88-19.3-.46-9.75-3.8-13.5-16.88-10.06-26.14,1.79-4.84,9.42-7.88,11-11.94,1.49-3.83,2.46-6.85,6.54-8.92,6.59-3.33,23.26-6.24,30.61-5.61,6.19.55,7.38,7.69,11.2,9.34,15.31,6.59,22.14,3.5,22,26.35l-.32,2.06c6-2.91,14.51-7.12,20.66-9.73V250.09Z" transform="translate(-17.61 -250.09)"/><path class="cls-2" d="M506.54,600.17l6.61,76.1,8.73-.76-6.61-76.1Zm-60-10.56-24.92,72.2,23,7.95,8-23.07-8.28-2.86-5.1,14.78-6.48-2.23,22.05-63.91Zm25.16,16.67-7,59.38a8.3,8.3,0,0,0,7.25,9.21l16,1.9,1-8.71-15.51-1.84,3-24.87L488,642.74l1-8.71-11.63-1.38,3-24.87,15.51,1.84,1-8.7-16-1.9A8.27,8.27,0,0,0,471.67,606.28ZM595,560.68l-6.22,6.17,53.46,53.9.33.34,6.22-6.17L595.3,561Zm-42.61,38.09a8.24,8.24,0,0,0-7.91-5.88,8.43,8.43,0,0,0-2.44.37L526.62,598l22.17,72.59.14.45,8.38-2.56-9.87-32.33,7-2.14a8.27,8.27,0,0,0,5.49-10.35Zm-7.48,29-7.31-23.94,6.56-2,7.31,23.94Zm125.51-61.11-26.22-16.53-6.47,10.26L645.1,565l1.8-2.86,21.17,13.36-3.65,5.8-49.77-31.38,3.66-5.8,10,6.31L633,543l-7.63-4.82a12.19,12.19,0,1,0-13,20.62l45,28.4a12.19,12.19,0,1,0,13-20.62Zm-72.3,56.49,8.3,13.25-5.51,3.46-18.53-58.26-4.46-7.13-20.65,12.95,13,20.68,7.43-4.65-8.31-13.25,5.51-3.46L593.36,645l4.46,7.13,20.65-12.95-13-20.68Z" transform="translate(-17.61 -250.09)"/><path class="cls-2" d="M299.9,619.69l.23.34c44.7,66.74,118.92,99.83,198.54,99.83S652.52,686.77,697.22,620l.23-.34.2-.36c6.7-11.64,9.63-19.3,9.63-43.71V511H695.2v64.64c0,23-2.66,28.37-8,37.69-40.92,61.08-110.08,94.47-188.51,94.47s-147.59-33.39-188.5-94.47c-5.35-9.32-8-14.73-8-37.69V510.86H290.06v64.77c0,24.4,2.93,32.07,9.63,43.71Z" transform="translate(-17.61 -250.09)"/><polygon class="cls-2" points="269.59 137.62 269.59 20.48 692.54 20.48 692.54 137.71 699.24 140.82 699.24 13.77 262.88 13.77 262.88 140.76 269.59 137.62"/><polygon class="cls-2" points="272.45 23.35 272.45 136.28 284.54 130.61 284.54 35.44 677.59 35.44 677.59 130.77 689.67 136.38 689.67 23.35 272.45 23.35"/><path class="cls-2" d="M710.15,511v64.64c0,25.12-3,33-10,45.14l-.26.45-.28.42c-45.24,67.54-120.35,101.11-200.93,101.11S343,689.17,297.75,621.63l-.29-.42-.25-.45c-7-12.11-10-20-10-45.14V510.86h-6.71v64.77c0,26.6,3.49,35.58,10.91,48.49l.37.64.41.62c46.47,69.39,123.67,104.08,206.49,104.08s160-34.68,206.5-104.08l.41-.62.37-.64c7.41-12.9,10.9-21.88,10.9-48.49V511Z" transform="translate(-17.61 -250.09)"/><path class="cls-3" d="M498.38,328.06a111.08,111.08,0,0,1,41.55,7.9,52,52,0,0,1-6.49,15.4c-23.18-3-49-.54-49-.54L463,333.89a111.12,111.12,0,0,1,35.39-5.83Z" transform="translate(-17.61 -250.09)"/><path class="cls-4" d="M596.92,491.11c-8.65-2.16-16.65-6.31-25.24-8.71-2.5,1.34-4.46,2.53-6.13,3.6a118.41,118.41,0,0,1-34.39,26.84c-31.82,17.09-70.93,17.36-103.33,2.8A112.65,112.65,0,0,1,408,504.24a111.17,111.17,0,0,0,83.42,46.17l3.75-.06a1.61,1.61,0,0,0,1,.28,116.26,116.26,0,0,0,60.25-17,106.26,106.26,0,0,0,40.18-41.84l1.07-.49C597.37,491.24,597.15,491.17,596.92,491.11Z" transform="translate(-17.61 -250.09)"/><path class="cls-2" d="M539.49,422.5c5.76,12,12.71,24.72,17.45,33.12,6.38-9.36,7.33-16.52,13.08-32.76,2.24-6.29,10.09-15.29,17.45-22.65a263.9,263.9,0,0,0-26.55-14.54C549.23,402.14,539.49,422.5,539.49,422.5Z" transform="translate(-17.61 -250.09)"/><path class="cls-2" d="M422.69,357.77a111.69,111.69,0,0,0-24.17,32.54c1.49,1.19,2.89,2.35,4.22,3.49.92-1.19,1.85-2.38,2.81-3.58A301.39,301.39,0,0,1,422.69,357.77Z" transform="translate(-17.61 -250.09)"/><path class="cls-2" d="M491.57,423.36s-13.87-22.09-28.38-38.56c0,0-30.56,13.64-41.83,19.5,0,0-.39,4-.67,10.41,6.81,11.57,10.13,24,18.8,41.85a24.31,24.31,0,0,1,5.28,5.12c6,1.71,13,3.58,20.81,5.46C465.58,467.14,484.86,436.38,491.57,423.36Z" transform="translate(-17.61 -250.09)"/><path class="cls-3" d="M489,505.92l48.13-1.3,9.32,26.23c-18.19,10.82-40.09,16.47-40.09,16.47-23-5-36.2-15-36.2-15L489,505.92Z" transform="translate(-17.61 -250.09)"/><path class="cls-2" d="M410,487.08c-4,1.59-7.87,3.14-10.21,3.89l-.78.24a96.11,96.11,0,0,0,13.59,19,92.47,92.47,0,0,0,15.78,13.63,22.26,22.26,0,0,0,3.15-2.75S417.94,501.5,410,487.08Z" transform="translate(-17.61 -250.09)"/><path class="cls-5" d="M138.5,504c-5.3,1.45-3.74,7.57-4.88,11.83.21.31.62.94,1,.83,2-.83,5.19-.21,6.64-2.08.63-2.18,1.45-3.74,1.66-6.23C142.44,506.47,140.47,504.18,138.5,504ZM681,481c-2.91.63-5.81,2-9.13,1.15-3,0-7.88-2.7-9.23,1.35-.52,2.59-2,4.77-2.59,7.27,0,1.34,1.24,2.59,2.48,3.21,1.87.41,4.15,1.45,5.82,1.14,3.11-2.18,2.9-6.12,6-8.4,1.66.41,1.86,2.7,3.73,2.49a6.14,6.14,0,0,0,4.67-3.12,4.53,4.53,0,0,0,.1-3.84A3.39,3.39,0,0,0,681,481Zm99.5-58c.42,1.09,2.58,3.38,1.14,4.36-3,2.06-18.26-.7-19.1,1.66.86,3.19,9.92,5.61,12.87,6.74,3.48,1.33,6.7,2.31,10.38.52,4.1-2,6.76-7.43,6-11.93a31.09,31.09,0,0,0-3.84-8.81c-1.19-1.59-11.22-9.52-8.4-10.59,3.38,1.08,8,.11,10.37,3.32,6.31,1.79,13,2.89,19.51,4,4.14.75,8.86-.4,11.31-4,1.34-2,1.35-5.64.31-7.78-1.2-2.45-4.85-3.19-7.16-4-2.9.63.32,3.17-2.17,4.26l-5.61-.73c-3.53-3.64,3.84-3.14,4.25-5.09.61-2.82-2.06-5.43-.3-8.19a2.89,2.89,0,0,0-1.45-1.66c-2.89-1-20.14-5.16-22.52-5l-.72.83c.69,1,3.6,3.59,3.73,3.84,1.15,2.08-6.6,3.57-7.88,3.84-6.2,1.31-22.77,3.29-20.33,13.07C762.08,406.28,778.54,418,780.55,423.05ZM187.37,412.37c6.45-1.16,13.2-2.26,19.5-4,2.38-3.21,7-2.24,10.37-3.32,2.81,1.07-7.21,9-8.41,10.59A31.27,31.27,0,0,0,205,424.4c-.74,4.5,1.92,9.93,6,11.93,3.67,1.79,6.9.81,10.38-.52,2.95-1.13,12-3.55,12.87-6.74-.83-2.36-16.07.39-19.09-1.66-1.44-1,.71-3.27,1.14-4.36,2-5.07,18.47-16.77,19.61-21.37,2.43-9.78-14.14-11.77-20.33-13.07-1.28-.27-9-1.76-7.89-3.84.13-.24,3-2.88,3.74-3.84l-.73-.83c-2.37-.18-19.62,3.95-22.51,5a2.86,2.86,0,0,0-1.45,1.66c1.75,2.77-.92,5.37-.31,8.2.42,1.95,7.78,1.45,4.25,5.09l-5.6.73c-2.5-1.09.72-3.63-2.18-4.26-2.32.86-6,1.59-7.16,4-1,2.14-1,5.79.31,7.78C178.51,412,183.22,413.12,187.37,412.37Zm-34.86,87.87c-.35-1.09-7.2.12-7.57,1.45C144.38,503.64,150.75,504.6,152.51,500.24Zm691.85,0c1.76,4.36,8.13,3.39,7.58,1.45C851.56,500.36,844.71,499.15,844.36,500.24Zm14,3.73c-2,.2-3.94,2.49-4.46,4.36.2,2.49,1,4,1.66,6.23,1.45,1.87,4.66,1.24,6.64,2.08.42.1.83-.52,1-.83C862.11,511.55,863.66,505.43,858.37,504Zm76.72-21.06c-31.87-9.85-64.16-17.89-96.43-26.26-9.66-2.5-19.39-4.86-29.15-6.94-15.66-3.34-31.39-7.33-47.12-10.18-1.42-.26-3.24,0-3.93-1.65.53-2.94-2.77-3.41-4.77-4.06-4.79-1.55-9.55-3.07-14.42-4.44-3.55-1-7.12-2.91-10.69-3.64-4.5-.93-8.07-1-11.21-5l.73-.42c4.27,1.7,11.11,5.36,15.56,2.39,2.12-1.41,4.34-5.2,3.32-7.77-.75-1.94-3.13-2.19-4.76-2.91-7-3-13.85-6.8-20.68-10.2q-21.66-10.78-43.24-21.75c-6.55-3.32-14-7.15-21.17-8.71-5.86-1.28-12.53.34-17.63,3.42s-4.94,10.21-8.72,9.45a3,3,0,0,1-.94-2.18c-1.53-2.42-6.31,4.39-10.18,6.33-8.62,4.33-23.76,20.88-30,28.74-3.92,5-5.5,11.3-7,17.33l.84,1.14c1.89.46,3.64-.32,5.28-1.14,1.58.4,1.43,2.38,2.29,3.52,6.29,8.48,23,3.55,32.17,6.64.13.56,0,1.06-.62,1.14-4.11.53-9.53-.33-13.73-.44-9.68-.25-19.37-.37-29-.9l-1.14.62c-.91,2-6.22,13.38-7.06,14.31-1.3,1.43-3.21,2.53-4.59,4.06-3.75,4.19-6.47,9.28-11.18,12.54-1.41,1-4.24,1.51-4.87,3.11l.72.83c14.29,1.16,15.74-13.83,25.31-17.22a.91.91,0,0,1,.63,1.14,36.73,36.73,0,0,0-6.44,8.81c-5.58,11.32-9.56,7.87-14.93,13.08l.83,1.24c15.83-.46,18.71-9.36,23.87-10.07,4.4-.61,20.9,7.11,26.36,8.62,2.73.75,5.43,1.68,8.31,1.64,1,0,2.26-.53,3.1-.5,2.11.07,2.53,3.85,7.15,1.66,2.78-1.32,3-5.29,3.32-8,.42-3.25-3.61-6-3.32-7.79.41-2.49,3.55.85,4.25-1.35.43-1.32-1.19-4-2-5-2.08-2.66-8-7.22-7.16-11.1a2.54,2.54,0,0,1,1.56-1.14l19.19,2.38c.67.08,3.59,6.89,3.63,7.57.05,1-2.75,8.06-3.32,9.44-1.6,3.82-4.41,6.59-4.36,11,.05,5.42,3.71,10.45,6.43,14.93,3,5,7.87,2.61,12.25,4,1.8.6,3.74,1.84,5.51,2.62a111.12,111.12,0,0,0,17.72,6.4c3.25.78,8.26-.3,10.17-3.32,1.4-2.2-3.31-2.87-1.24-5.29,1.11-1.29,2.49-1.21,4-1,3.33.37,20.41,2.44,22.2.52.6-.64-.3-1.51-.83-1.77-3.45-1.66-8.76-2.46-12.55-3.52-4.58-1.29-9.32-1.61-13.9-3-3.9-1.2-3.65,2.8-6.44,4.56-4.19,2.68-15.44-2.66-16.81-7.47-1.32-4.63,2.91-10.48,5.92-13.6,2.36-2.45,5.25-2.8,7.58-4.67,1.47-1.18.41-3.53.41-5.08,2.3-2.89,11,1.71,14.52.73,3.85-1.07,1-6.15,4.26-7.15,2.87.82,5.17,2.9,8,3.93,2.09.77,5.79,1.16,7.16,3,1.1,1.47,0,3.52-.31,5.08,1,1.91,4.24,2.51,6.23,2.81,3.2.47,6.67.28,9.92.62s6.5,1.27,9.69,1.56l10.79,1c2.6,1.24-.63,3.48,1.76,8.5-2.56-.37-13.11-3.51-14.32,0,9.32,8.69,30.44,14.81,43,16.61a106.42,106.42,0,0,0,23.45.2c4.78-.39,5.79-4.8,8.72-5.39,3.73-.75,7,5.21,9.55,6.74,2.39,1.43,4.84,2.79,7.26,4.15,4.26,2.4,8.3-1.76,11.62.1,4.06,2.29,6.6,13.86,13.07,12a4.27,4.27,0,0,0,2.49-2.8c1.28-3.24-.46-6.15-1.24-9.24,1.21-2.86,5.34,1.57,5.18-1.45a3.85,3.85,0,0,0-1.87-1.25c-7.52-1.92-6.05-10.09-16.81-12.13-4.84-.91-9.67-2.1-14.53-3-1.37-.26-4.5.48-4.46-1.66l.93-.73,8.61-.21-.2-1.14c-13.78-1.73-27.3-5.64-41.08-7.27-1-.61-2.35-3.79-2.18-4.77.4-2.52,4.38,2.16,6.44-2.81,1.19-2.88-1.68-5.33.62-6.74,6.06.78,12.11,1.54,18.15,2.39-34.21-8.17-68.73-15-102.92-23.13-7.42-1.76-15-2.93-22.3-5.19l.1-.83c30.18,4.23,60.06,11.51,90.37,14.73v-.73c-16.76-3.19-33.34-7.46-50.12-10.48-25-4.5-50.2-8.24-75.33-12.09-16.39-2.52-33-5.58-49.58-7l-.52,1.14c1.1,1.36,2.66,2,4.15,2.8a.76.76,0,0,1-.1,1c-2.1-.22-11.51.38-11.52-1.86,3.49-3.31,4.36-5,9.44-4.57,7.91.74,15.88,1.9,23.76,2.91,45.4,5.82,91.13,11.91,136.23,19.72,47.58,8.23,95.19,16.67,142.13,28.09,7.45,1.81,57.77,15.52,59.78,15.06C954.81,488.73,938.21,483.89,935.08,482.92ZM593,473.69c-1.28,1-3.52.43-5.12.21-1.92-1.06-2.35-3.3-2.56-5.44a1.77,1.77,0,0,1,.64-1.5,7.39,7.39,0,0,1,6,2.35C592.54,470.71,593.72,472.2,593,473.69ZM754,492c5.08,1,10.16,1.45,15.34,2.91a3.47,3.47,0,0,1,1.84,2.32,1.78,1.78,0,0,1-1.47.67l-20.24-5.18-2.27-1.5A45,45,0,0,1,754,492ZM641.21,469.74a2.19,2.19,0,0,1,2.08-1.76c1.24.41,2.8.62,3.22,2.07l-4.79,10.28c-3.31,4.36-.93,10.38.22,14.73a1.44,1.44,0,0,1-1.24,1c-3.33-3.32-6.33-8-5.09-13.18Zm-38.29-57.26c-.83-.1-3.4-.36-3-1.81a2.62,2.62,0,0,1,1.76-.41L661,419.9l2.79,1.28S622.74,415.38,602.92,412.47ZM671.19,402c-10.48-2-21.26-4.51-31.54-7.36-.79-.22-2.61-.37-2.38-1.55,3.76-.73,21,3.83,25.31,5.29,1.92.65,3,.2,5,0a15.06,15.06,0,0,1,4,3.22ZM318.73,489.25c1.87.21,2.07-2.08,3.74-2.49,3.11,2.28,2.9,6.23,6,8.4,1.66.31,3.94-.73,5.81-1.14,1.24-.62,2.49-1.87,2.49-3.21-.62-2.49-2.08-4.67-2.59-7.27-1.34-4-6.22-1.35-9.24-1.35-3.31.83-6.22-.51-9.13-1.15a3.39,3.39,0,0,0-1.87,1.25,4.51,4.51,0,0,0,.11,3.84A6.13,6.13,0,0,0,318.73,489.25ZM450.91,476c-4.71-3.26-7.43-8.35-11.18-12.54-1.38-1.53-3.29-2.63-4.59-4.06-.84-.93-6.15-12.33-7.05-14.31l-1.14-.62c-9.66.53-19.35.65-29,.9-4.2.11-9.63,1-13.72.44-.62-.08-.76-.58-.63-1.14,9.15-3.09,25.87,1.83,32.17-6.64.85-1.14.71-3.12,2.28-3.52,1.66.82,3.4,1.59,5.29,1.14l.83-1.14c-1.45-6-3-12.37-6.95-17.33-6.23-7.86-21.36-24.4-30-28.74-3.86-1.94-8.64-8.75-10.17-6.33a3,3,0,0,1-.94,2.18c-3.78.76-3.66-6.4-8.72-9.45s-11.78-4.7-17.64-3.42c-7.19,1.57-14.62,5.4-21.17,8.71Q307,391,285.34,401.85c-6.83,3.41-13.68,7.16-20.67,10.21-1.64.72-4,1-4.77,2.91-1,2.57,1.2,6.37,3.31,7.77,4.46,3,11.31-.69,15.57-2.39l.73.42c-3.14,4-6.7,4-11.2,5-3.57.74-7.15,2.64-10.7,3.64-4.85,1.38-9.61,2.89-14.41,4.44-2,.65-5.31,1.12-4.77,4.06-.69,1.63-2.5,1.39-3.93,1.65-15.72,2.85-31.46,6.83-47.11,10.18-9.76,2.08-19.49,4.44-29.15,6.94-32.26,8.38-64.56,16.41-96.42,26.26-3.13,1-19.73,5.81-21.13,7.16,2,.46,52.32-13.25,59.79-15.06,46.94-11.42,94.55-19.86,142.12-28.09,45.1-7.81,90.83-13.89,136.23-19.72,7.89-1,15.86-2.17,23.77-2.91,5.08-.47,5.94,1.25,9.44,4.57,0,2.24-9.42,1.64-11.52,1.86a.75.75,0,0,1-.1-1c1.5-.81,3-1.44,4.15-2.8l-.52-1.14c-16.53,1.41-33.19,4.47-49.58,7-25.12,3.85-50.32,7.59-75.33,12.09-16.78,3-33.36,7.29-50.12,10.48V456c30.3-3.22,60.19-10.5,90.37-14.73l.1.83c-7.3,2.26-14.89,3.43-22.31,5.19-34.2,8.12-68.71,15-102.93,23.13,6.05-.85,12.1-1.61,18.16-2.39,2.3,1.41-.57,3.86.62,6.74,2.06,5,6,.29,6.44,2.81.16,1-1.15,4.16-2.18,4.77-13.79,1.63-27.31,5.54-41.09,7.27l-.2,1.14,8.61.21.93.73c.05,2.14-3.1,1.4-4.46,1.66-4.86.91-9.69,2.09-14.53,3-10.75,2-9.28,10.22-16.81,12.13a3.86,3.86,0,0,0-1.87,1.25c-.16,3,4-1.41,5.19,1.45-.79,3.09-2.53,6-1.25,9.24a4.29,4.29,0,0,0,2.49,2.8c6.48,1.82,9-9.75,13.07-12,3.32-1.87,7.36,2.3,11.62-.1,2.43-1.36,4.88-2.72,7.27-4.15,2.56-1.54,5.82-7.49,9.54-6.74,2.92.6,3.94,5,8.72,5.39a106.41,106.41,0,0,0,23.45-.2c12.52-1.79,33.64-7.92,43-16.61-1.2-3.51-11.76-.37-14.32,0,2.39-5-.84-7.26,1.77-8.51l10.79-1c3.19-.29,6.44-1.22,9.69-1.56s6.73-.15,9.92-.62c2-.29,5.21-.89,6.23-2.81-.28-1.56-1.41-3.61-.31-5.08,1.37-1.85,5.07-2.24,7.16-3,2.81-1,5.1-3.11,8-3.93,3.28,1,.41,6.08,4.25,7.15,3.55,1,12.22-3.61,14.52-.73,0,1.55-1.06,3.9.42,5.08,2.32,1.87,5.21,2.22,7.57,4.67,3,3.12,7.23,9,5.91,13.6-1.36,4.81-12.61,10.15-16.8,7.47-2.78-1.77-2.53-5.76-6.44-4.56-4.58,1.4-9.32,1.72-13.9,3-3.79,1.06-9.11,1.85-12.56,3.52-.52.26-1.43,1.13-.83,1.77,1.79,1.92,18.88-.15,22.2-.52,1.55-.17,2.94-.25,4,1,2.08,2.42-2.64,3.09-1.24,5.29,1.91,3,6.93,4.1,10.16,3.32a110.79,110.79,0,0,0,17.72-6.4c1.78-.79,3.72-2,5.52-2.62,4.38-1.44,9.22.93,12.24-4,2.73-4.48,6.38-9.51,6.43-14.93,0-4.41-2.76-7.19-4.36-11-.58-1.38-3.37-8.4-3.32-9.44,0-.68,3-7.49,3.63-7.57l19.2-2.38a2.52,2.52,0,0,1,1.55,1.14c.81,3.88-5.07,8.44-7.16,11.1-.79,1-2.4,3.66-2,5,.72,2.2,3.85-1.14,4.25,1.35.29,1.77-3.73,4.54-3.32,7.79.35,2.7.54,6.67,3.32,8,4.63,2.19,5-1.59,7.17-1.66.83,0,2.13.48,3.09.5,2.88,0,5.59-.89,8.32-1.64,5.45-1.51,22-9.23,26.35-8.62,5.16.72,8,9.61,23.87,10.07l.83-1.25c-5.38-5.2-9.36-1.75-14.94-13.07a36.34,36.34,0,0,0-6.43-8.81.91.91,0,0,1,.62-1.14c9.57,3.39,11,18.38,25.32,17.22l.73-.83C455.16,477.47,452.32,476.94,450.91,476ZM325.26,401.58a15.25,15.25,0,0,1,4-3.21c1.93.2,3.06.65,5,0,4.33-1.46,21.55-6,25.32-5.29.23,1.18-1.6,1.33-2.39,1.55-10.29,2.86-21.06,5.33-31.54,7.36Zm68.69,10.9c-19.82,2.91-60.9,8.71-60.9,8.71l2.79-1.28,59.33-9.66a2.6,2.6,0,0,1,1.76.41C397.35,412.11,394.78,412.37,393.95,412.47Zm-146.6,80.25-20.23,5.18a1.77,1.77,0,0,1-1.47-.67,3.44,3.44,0,0,1,1.84-2.32c5.19-1.45,10.26-1.87,15.35-2.91a44.93,44.93,0,0,1,6.79-.79Zm108.83,3.37a1.46,1.46,0,0,1-1.25-1c1.15-4.35,3.53-10.37.21-14.73L350.37,470c.41-1.45,2-1.66,3.21-2.07a2.19,2.19,0,0,1,2.08,1.76l5.6,13.17C362.51,488.11,359.5,492.77,356.18,496.1ZM409,473.91c-1.6.21-3.84.75-5.12-.21-.75-1.49.42-3,1.07-4.37a7.38,7.38,0,0,1,6-2.35,1.77,1.77,0,0,1,.64,1.5C411.37,470.6,410.94,472.84,409,473.91Z" transform="translate(-17.61 -250.09)"/><path class="cls-4" d="M594.2,393.78c1.23-1.12,2.39-2.17,3.4-3-.5-.49.5-.23.19-.16l.45-.36a112.36,112.36,0,0,0-7.2-12.59A118.43,118.43,0,0,1,594.2,393.78Z" transform="translate(-17.61 -250.09)"/><path class="cls-2" d="M395.17,550.36l-9.23-13.18L323.38,581l5,7.17,27.69-19.39,3.93,5.62-22.72,15.9a13.32,13.32,0,0,0-3.77,4.77l-.13.26,5.22,7.46.36-.73a10.86,10.86,0,0,1,3.34-4.59l20.6-14.42c3-2.09,4.27-4.11,4.06-6.45a6.44,6.44,0,0,0,2.42.51,7.23,7.23,0,0,0,4.16-1.52l19.56-13.69a8.28,8.28,0,0,0,2-11.54Zm-7.27,4.9-20.77,14.54-4.3-6.14.26-.18,20.77-14.54,4.3,6.14Z" transform="translate(-17.61 -250.09)"/><path class="cls-2" d="M419.12,577.86a8.22,8.22,0,0,0-2.86-5.66l-12.19-10.51-49.87,57.87,12.19,10.5a8.27,8.27,0,0,0,11.69-.87l15-17.37c2.38-2.76,3.13-5,2.34-7.24a8,8,0,0,0,1,.07,6.55,6.55,0,0,0,5.11-2.67l15.59-18.09A8.22,8.22,0,0,0,419.12,577.86Zm-30.77,26.49-16.56,19.21-5.67-4.9,16.76-19.45,5.68,4.89Zm5.48-6.85L388.64,593l16.35-19,5.19,4.48Z" transform="translate(-17.61 -250.09)"/></svg>